<svg width="21" height="34" viewBox="0 0 21 34" fill="rgba(255, 255, 255, 0.2)" xmlns="http://www.w3.org/2000/svg">
<path d="M18.1818 30.7212V27.5993L16.9816 27.5561C14.7624 27.4752 13.1585 26.9485 11.9332 25.895C10.9143 25.0193 10.216 23.853 9.47562 22.6178L9.21915 22.1896C8.32348 20.7055 7.30359 19.1581 5.55033 17.9782C4.97526 17.5924 4.36112 17.2682 3.69288 16.9992C4.36413 16.7302 4.97827 16.4052 5.55133 16.0194C7.30359 14.8411 8.32549 13.2929 9.22215 11.8096L9.47763 11.383C10.218 10.1462 10.9193 8.97909 11.9372 8.10335C13.1625 7.05071 14.7654 6.52319 16.9806 6.44234L18.1808 6.39911V3.2772C18.1808 2.22296 19.374 1.29519 20.999 1.00781V32.9898C19.374 32.7024 18.1808 31.7746 18.1808 30.7204L18.1818 30.7212Z" fill="rgba(255, 255, 255, 0.2)"/>
<path d="M1.83541 17.4771L4.49589e-07 17.0008L1.83842 16.5221C1.83842 16.5221 1.84042 16.5213 1.84242 16.5205C2.38643 16.3788 2.87534 16.2059 3.32718 16.0122C3.35523 16.0002 3.38529 15.9906 3.41234 15.9786C4.37413 15.5543 5.14155 15.0196 5.78374 14.4176C5.79376 14.408 5.80378 14.3992 5.8138 14.3896C6.11436 14.1054 6.38686 13.8052 6.64033 13.4955C6.66137 13.4698 6.68341 13.4434 6.70445 13.4178C6.95191 13.1096 7.18034 12.7918 7.39774 12.4676C7.41076 12.4484 7.42479 12.4284 7.43681 12.4092C7.66223 12.0706 7.87463 11.7264 8.08301 11.3814C8.08502 11.379 8.08702 11.3758 8.08802 11.3734L8.34249 10.9491C8.51581 10.6585 8.68814 10.3743 8.86346 10.0926C8.89452 10.0429 8.92558 9.99251 8.95663 9.94288C9.12695 9.67232 9.30228 9.40816 9.48361 9.1504C9.52168 9.09676 9.55975 9.04393 9.59883 8.9911C9.78417 8.73654 9.97653 8.48919 10.1839 8.25145C10.219 8.21142 10.257 8.173 10.2931 8.13378C10.5115 7.89203 10.7419 7.65828 10.9954 7.43815C11.0385 7.40053 11.0866 7.36531 11.1307 7.32848C11.2669 7.21641 11.4042 7.10595 11.5474 7.00428C11.6326 6.94345 11.7268 6.88821 11.8159 6.82978C11.9191 6.76334 12.0213 6.6953 12.1275 6.63366C12.2417 6.56802 12.364 6.50798 12.4852 6.44634C12.5744 6.40152 12.6625 6.35429 12.7547 6.31186C12.899 6.24622 13.0522 6.18618 13.2065 6.12615C13.2837 6.09653 13.3588 6.06451 13.437 6.03729C13.6103 5.97646 13.7946 5.92202 13.981 5.86919C14.0511 5.84918 14.1192 5.82757 14.1904 5.80915C14.3887 5.75792 14.5981 5.7147 14.8115 5.67307C14.8826 5.65946 14.9508 5.64265 15.0229 5.63064C15.2393 5.59302 15.4697 5.5634 15.7022 5.53619C15.7823 5.52658 15.8574 5.51377 15.9396 5.50577C16.2141 5.47855 16.5026 5.46014 16.8002 5.44733C16.8413 5.44573 16.8793 5.44093 16.9204 5.43933V3.27801C16.9204 3.05627 16.9575 2.84014 17.0206 2.62961C17.0587 2.50393 17.1248 2.38466 17.1849 2.26378C17.222 2.18694 17.249 2.10689 17.2951 2.03244C17.3853 1.88755 17.4985 1.75147 17.6177 1.61699C17.6558 1.57376 17.6868 1.52733 17.7279 1.48491C17.8562 1.35363 18.0044 1.23275 18.1577 1.11428C18.2098 1.07426 18.2569 1.03103 18.312 0.991807C18.4603 0.887743 18.6246 0.794886 18.7909 0.70363C18.8741 0.658803 18.9532 0.610774 19.0404 0.569148C19.1916 0.496304 19.3549 0.433065 19.5182 0.371427C19.6425 0.324999 19.7657 0.27777 19.897 0.237745C20.0432 0.192118 20.1965 0.155295 20.3508 0.119273C20.5131 0.08165 20.6754 0.0472289 20.8417 0.0200122C20.8928 0.0120073 20.9469 0.00720441 20.999 0V1.00862C19.374 1.29599 18.1808 2.22376 18.1808 3.27801V6.39991L16.9805 6.44314C14.7654 6.52399 13.1624 7.05151 11.9372 8.10416C10.9183 8.97989 10.218 10.147 9.4776 11.3838L9.22213 11.8104C8.32546 13.2937 7.30256 14.8419 5.55131 16.0202C4.97724 16.406 4.3631 16.731 3.69286 17C4.3611 17.269 4.97524 17.5932 5.55031 17.979C7.30356 19.1589 8.32346 20.7063 9.21912 22.1904L9.4756 22.6186C10.215 23.8538 10.9143 25.0201 11.9332 25.8958C13.1584 26.9493 14.7624 27.476 16.9815 27.5569L18.1818 27.6001V30.722C18.1818 31.7762 19.375 32.704 21 32.9914V34C20.9479 33.9928 20.8948 33.9888 20.8427 33.98C20.6764 33.9528 20.5141 33.9183 20.3548 33.8807C20.2005 33.8439 20.0472 33.8071 19.9 33.7615C19.7697 33.7214 19.6465 33.6742 19.5233 33.6278C19.36 33.5653 19.1967 33.5029 19.0444 33.4292C18.9572 33.3876 18.8781 33.3396 18.7949 33.2948C18.6286 33.2035 18.4633 33.1107 18.316 33.0066C18.2609 32.9682 18.2138 32.9249 18.1617 32.8841C18.0084 32.7656 17.8592 32.6448 17.7319 32.5135C17.6909 32.4711 17.6598 32.4254 17.6217 32.3814C17.5035 32.2469 17.3893 32.11 17.2991 31.966C17.254 31.8915 17.226 31.8115 17.1889 31.7346C17.1288 31.6137 17.0627 31.4945 17.0246 31.3688C16.9615 31.1591 16.9244 30.9429 16.9244 30.7204V28.5591C16.8834 28.5575 16.8463 28.5527 16.8062 28.5511C16.5077 28.5383 16.2161 28.5198 15.9406 28.4918C15.8625 28.4838 15.7903 28.4718 15.7142 28.463C15.4777 28.435 15.2443 28.4054 15.0239 28.367C14.9538 28.3549 14.8876 28.3389 14.8185 28.3253C14.6031 28.2837 14.3907 28.2397 14.1904 28.1884C14.1212 28.1708 14.0561 28.1492 13.989 28.1308C13.7986 28.0772 13.6123 28.0219 13.436 27.9603C13.3598 27.9339 13.2877 27.9027 13.2125 27.8747C13.0552 27.8146 12.9 27.753 12.7527 27.6865C12.6625 27.6449 12.5764 27.5985 12.4882 27.5545C12.365 27.4928 12.2417 27.4312 12.1255 27.3647C12.0193 27.3031 11.9171 27.2351 11.8139 27.1686C11.7238 27.111 11.6316 27.055 11.5454 26.9949C11.3912 26.8852 11.2429 26.7684 11.0976 26.6467C11.0656 26.6195 11.0305 26.5947 10.9984 26.5667C10.7399 26.3433 10.5065 26.1056 10.2851 25.8598C10.252 25.823 10.217 25.7878 10.1839 25.7502C9.97252 25.5084 9.77616 25.2571 9.58881 24.9977C9.55474 24.9513 9.52068 24.9048 9.48762 24.8584C9.30127 24.5942 9.12094 24.3229 8.94661 24.0451C8.92157 24.0051 8.89652 23.9643 8.87148 23.9242C8.69214 23.6369 8.51582 23.3447 8.33748 23.0469C8.33648 23.0453 8.33548 23.0429 8.33448 23.0413L8.08602 22.625C8.079 22.613 8.07099 22.601 8.06298 22.589C7.8596 22.252 7.65121 21.9158 7.4318 21.5852C7.42078 21.5684 7.40876 21.5508 7.39674 21.534C7.17833 21.2074 6.9479 20.8864 6.69744 20.575C6.67941 20.5526 6.66137 20.531 6.64334 20.5085C6.38887 20.1964 6.11436 19.8946 5.81179 19.608C5.80278 19.6 5.79376 19.592 5.78575 19.5832C5.14255 18.9788 4.37312 18.4433 3.40933 18.0182C3.38529 18.0078 3.35924 17.999 3.33419 17.9886C2.87935 17.7925 2.38643 17.6188 1.83741 17.4763L1.83541 17.4771Z" fill="rgba(255, 255, 255, 0.2)"/>
</svg>
