<svg width="21" height="34" viewBox="0 0 21 34" fill="rgba(255, 255, 255, 0.2)" xmlns="http://www.w3.org/2000/svg">
<path d="M2.81821 30.7212V27.5993L4.01844 27.5561C6.23756 27.4752 7.84154 26.9485 9.06681 25.895C10.0857 25.0193 10.784 23.853 11.5244 22.6178L11.7809 22.1896C12.6765 20.7055 13.6964 19.1581 15.4497 17.9782C16.0247 17.5924 16.6389 17.2682 17.3071 16.9992C16.6359 16.7302 16.0217 16.4052 15.4487 16.0194C13.6964 14.8411 12.6745 13.2929 11.7778 11.8096L11.5224 11.383C10.782 10.1462 10.0807 8.97909 9.06281 8.10335C7.83753 7.05071 6.23455 6.52319 4.01944 6.44234L2.81921 6.39911V3.2772C2.81921 2.22296 1.62599 1.29519 0.000976562 1.00781V32.9898C1.62599 32.7024 2.81921 31.7746 2.81921 30.7204L2.81821 30.7212Z" fill="rgba(255, 255, 255, 0.2)"/>
<path d="M19.1646 17.4771L21 17.0008L19.1616 16.5221C19.1616 16.5221 19.1596 16.5213 19.1576 16.5205C18.6136 16.3788 18.1247 16.2059 17.6728 16.0122C17.6448 16.0002 17.6147 15.9906 17.5877 15.9786C16.6259 15.5543 15.8584 15.0196 15.2163 14.4176C15.2062 14.408 15.1962 14.3992 15.1862 14.3896C14.8856 14.1054 14.6131 13.8052 14.3597 13.4955C14.3386 13.4698 14.3166 13.4434 14.2955 13.4178C14.0481 13.1096 13.8197 12.7918 13.6023 12.4676C13.5892 12.4484 13.5752 12.4284 13.5632 12.4092C13.3378 12.0706 13.1254 11.7264 12.917 11.3814C12.915 11.379 12.913 11.3758 12.912 11.3734L12.6575 10.9491C12.4842 10.6585 12.3119 10.3743 12.1365 10.0926C12.1055 10.0429 12.0744 9.99251 12.0434 9.94288C11.873 9.67232 11.6977 9.40816 11.5164 9.1504C11.4783 9.09676 11.4402 9.04393 11.4012 8.9911C11.2158 8.73654 11.0235 8.48919 10.8161 8.25145C10.781 8.21142 10.743 8.173 10.7069 8.13378C10.4885 7.89203 10.2581 7.65828 10.0046 7.43815C9.9615 7.40053 9.91341 7.36531 9.86933 7.32848C9.73308 7.21641 9.59582 7.10595 9.45255 7.00428C9.3674 6.94345 9.27322 6.88821 9.18406 6.82978C9.08086 6.76334 8.97867 6.6953 8.87248 6.63366C8.75827 6.56802 8.63604 6.50798 8.51481 6.44634C8.42565 6.40152 8.33748 6.35429 8.24531 6.31186C8.10104 6.24622 7.94776 6.18618 7.79347 6.12615C7.71633 6.09653 7.64119 6.06451 7.56305 6.03729C7.38972 5.97646 7.20538 5.92202 7.01904 5.86919C6.94891 5.84918 6.88078 5.82757 6.80965 5.80915C6.61128 5.75792 6.40189 5.7147 6.18849 5.67307C6.11736 5.65946 6.04923 5.64265 5.9771 5.63064C5.7607 5.59302 5.53027 5.5634 5.29784 5.53619C5.21769 5.52658 5.14255 5.51377 5.0604 5.50577C4.78589 5.47855 4.49735 5.46014 4.1998 5.44733C4.15872 5.44573 4.12065 5.44093 4.07958 5.43933V3.27801C4.07958 3.05627 4.04251 2.84014 3.97939 2.62961C3.94132 2.50393 3.8752 2.38466 3.81508 2.26378C3.77802 2.18694 3.75097 2.10689 3.70488 2.03244C3.61471 1.88755 3.5015 1.75147 3.38228 1.61699C3.34421 1.57376 3.31315 1.52733 3.27208 1.48491C3.14384 1.35363 2.99556 1.23275 2.84228 1.11428C2.79018 1.07426 2.74309 1.03103 2.68799 0.991807C2.53972 0.887743 2.37541 0.794886 2.2091 0.70363C2.12595 0.658803 2.0468 0.610774 1.95964 0.569148C1.80836 0.496304 1.64506 0.433065 1.48175 0.371427C1.35752 0.324999 1.23429 0.27777 1.10305 0.237745C0.956777 0.192118 0.803492 0.155295 0.649206 0.119273C0.486904 0.08165 0.324603 0.0472289 0.158294 0.0200122C0.107199 0.0120073 0.0530986 0.00720441 0.00100186 0V1.00862C1.62602 1.29599 2.81924 2.22376 2.81924 3.27801V6.39991L4.01946 6.44314C6.23458 6.52399 7.83756 7.05151 9.06283 8.10416C10.0817 8.97989 10.782 10.147 11.5224 11.3838L11.7779 11.8104C12.6745 13.2937 13.6974 14.8419 15.4487 16.0202C16.0228 16.406 16.6369 16.731 17.3071 17C16.6389 17.269 16.0248 17.5932 15.4497 17.979C13.6964 19.1589 12.6765 20.7063 11.7809 22.1904L11.5244 22.6186C10.785 23.8538 10.0857 25.0201 9.06684 25.8958C7.84156 26.9493 6.23758 27.476 4.01846 27.5569L2.81823 27.6001V30.722C2.81823 31.7762 1.62502 32.704 0 32.9914V34C0.0520967 33.9928 0.105195 33.9888 0.157292 33.98C0.323601 33.9528 0.485902 33.9183 0.645198 33.8807C0.799485 33.8439 0.952769 33.8071 1.10004 33.7615C1.23028 33.7214 1.35351 33.6742 1.47674 33.6278C1.64005 33.5653 1.80335 33.5029 1.95563 33.4292C2.04279 33.3876 2.12194 33.3396 2.2051 33.2948C2.3714 33.2035 2.53671 33.1107 2.68398 33.0066C2.73909 32.9682 2.78617 32.9249 2.83827 32.8841C2.99156 32.7656 3.14083 32.6448 3.26807 32.5135C3.30915 32.4711 3.3402 32.4254 3.37827 32.3814C3.49649 32.2469 3.61071 32.11 3.70087 31.966C3.74596 31.8915 3.77401 31.8115 3.81108 31.7346C3.87119 31.6137 3.93731 31.4945 3.97538 31.3688C4.0385 31.1591 4.07557 30.9429 4.07557 30.7204V28.5591C4.11664 28.5575 4.15371 28.5527 4.19379 28.5511C4.49234 28.5383 4.78388 28.5198 5.0594 28.4918C5.13754 28.4838 5.20967 28.4718 5.28582 28.463C5.52226 28.435 5.75569 28.4054 5.9761 28.367C6.04623 28.3549 6.11235 28.3389 6.18148 28.3253C6.39688 28.2837 6.60927 28.2397 6.80965 28.1884C6.87877 28.1708 6.9439 28.1492 7.01102 28.1308C7.20137 28.0772 7.38772 28.0219 7.56405 27.9603C7.64019 27.9339 7.71232 27.9027 7.78746 27.8747C7.94475 27.8146 8.10004 27.753 8.24732 27.6865C8.33748 27.6449 8.42364 27.5985 8.51181 27.5545C8.63504 27.4928 8.75827 27.4312 8.87448 27.3647C8.98068 27.3031 9.08287 27.2351 9.18606 27.1686C9.27623 27.111 9.3684 27.055 9.45456 26.9949C9.60885 26.8852 9.75712 26.7684 9.90239 26.6467C9.93445 26.6195 9.96951 26.5947 10.0016 26.5667C10.2601 26.3433 10.4935 26.1056 10.7149 25.8598C10.748 25.823 10.783 25.7878 10.8161 25.7502C11.0275 25.5084 11.2238 25.2571 11.4112 24.9977C11.4453 24.9513 11.4793 24.9048 11.5124 24.8584C11.6987 24.5942 11.8791 24.3229 12.0534 24.0451C12.0784 24.0051 12.1035 23.9643 12.1285 23.9242C12.3079 23.6369 12.4842 23.3447 12.6625 23.0469C12.6635 23.0453 12.6645 23.0429 12.6655 23.0413L12.914 22.625C12.921 22.613 12.929 22.601 12.937 22.589C13.1404 22.252 13.3488 21.9158 13.5682 21.5852C13.5792 21.5684 13.5912 21.5508 13.6033 21.534C13.8217 21.2074 14.0521 20.8864 14.3026 20.575C14.3206 20.5526 14.3386 20.531 14.3567 20.5085C14.6111 20.1964 14.8856 19.8946 15.1882 19.608C15.1972 19.6 15.2062 19.592 15.2143 19.5832C15.8574 18.9788 16.6269 18.4433 17.5907 18.0182C17.6147 18.0078 17.6408 17.999 17.6658 17.9886C18.1207 17.7925 18.6136 17.6188 19.1626 17.4763L19.1646 17.4771Z" fill="rgba(255, 255, 255, 0.2)"/>
</svg>
